<svg width="34" height="40" viewBox="0 0 34 40" fill="none" xmlns="http://www.w3.org/2000/svg">
<path d="M14.9487 0.0325241C14.4867 0.12315 14.2094 0.276283 13.9291 0.595047C13.8306 0.707554 13.7258 0.801308 13.6981 0.801308C13.6088 0.801308 13.1837 0.923187 12.9712 1.00757C12.3859 1.24508 12.0533 1.60135 11.9824 2.07012C11.9331 2.37638 11.9763 2.55452 12.2165 3.03579L12.4291 3.47018L12.466 3.30142C12.5215 3.03579 12.5954 2.94203 12.8387 2.82328C12.9589 2.7639 13.0297 2.75452 13.3932 2.75452C13.8336 2.75452 14.114 2.80765 14.5298 2.96391L14.7269 3.03891H14.2372C13.5934 3.03579 13.1437 3.13579 12.8665 3.33892C12.7956 3.39205 12.6447 3.47956 12.5338 3.53268C12.3551 3.61706 12.2997 3.62956 12.0687 3.62644C11.8377 3.62644 11.7483 3.60769 11.3294 3.46393C10.7164 3.25767 10.544 3.22955 10.1189 3.25767C9.82317 3.27642 9.78621 3.2858 9.83549 3.32018C9.8663 3.34518 10.1435 3.50456 10.4515 3.67957C10.9721 3.97333 11.0183 4.00458 11.0522 4.11084C11.1076 4.28584 11.2863 4.51398 11.4434 4.61398C11.8715 4.889 12.3736 4.78274 12.9897 4.28272C13.1283 4.17022 13.2977 4.00771 13.3716 3.92333C13.4794 3.79832 13.5195 3.7702 13.6026 3.7702C13.732 3.7702 14.5852 4.20459 14.9641 4.46085C15.6325 4.914 15.9036 5.45465 15.7958 6.12343C15.6818 6.85784 15.3615 7.25473 14.7392 7.43599C14.5359 7.49537 14.4435 7.50162 13.695 7.49537L12.8726 7.49224L12.8541 7.65788C12.8172 7.96414 12.9096 8.27666 13.1129 8.53292C13.2392 8.69542 13.5225 8.92043 13.7412 9.03606C13.8367 9.08607 13.9168 9.13607 13.9168 9.14544C13.9168 9.17357 13.2145 9.55484 13.0143 9.63922C12.7679 9.74235 12.389 9.7486 12.1241 9.65484L11.9485 9.59234L11.9393 9.68922C11.8839 10.2736 12.3767 10.7268 13.4486 11.083C13.6396 11.1487 13.7998 11.2049 13.809 11.2112C13.8306 11.2362 13.4702 11.4893 13.2392 11.6112C12.6724 11.9112 12.0718 11.9643 11.4742 11.7643C11.1631 11.6612 10.1897 11.1612 9.96795 10.9893C9.53055 10.6549 9.25025 10.2924 8.55719 9.1767C8.31694 8.78918 8.03047 8.34228 7.91958 8.1829C7.68549 7.83913 7.57152 7.60162 7.46371 7.2266C7.31586 6.70158 7.32818 6.14531 7.50067 5.66716C7.57768 5.46402 7.58384 5.45465 7.76865 5.36715C8.00583 5.25151 8.1814 5.09838 8.32002 4.88587C8.70505 4.30147 8.68656 3.34518 8.27689 2.45763C7.99967 1.85761 7.80253 1.65447 7.21729 1.36071C6.04372 0.776306 4.80854 0.916939 3.95531 1.73573C3.72737 1.95761 3.57028 2.192 3.37931 2.59514C3.10824 3.16704 2.95115 3.72644 2.56612 5.45465C2.2735 6.77034 2.0856 7.42349 1.79606 8.12977C1.47572 8.92043 0.973637 9.61422 0.409952 10.0486L0.206656 10.2049L0.369909 10.2549C1.16153 10.4955 1.76218 10.4174 2.29814 10.0049C2.40287 9.9236 2.60925 9.7111 2.75402 9.53296C2.9912 9.2392 3.02816 9.20795 3.12057 9.20795C3.23145 9.20795 3.25918 9.24545 3.25918 9.40796C3.25918 9.49234 3.0066 9.8736 1.81146 11.5831C0.727217 13.1394 0.372989 13.6675 0.397631 13.6957C0.422273 13.7269 0.474637 13.7113 0.63481 13.6238C1.65745 13.0675 2.43983 12.3862 3.022 11.5424C3.12673 11.3893 3.22837 11.2424 3.24686 11.2174C3.27458 11.1768 3.29614 11.208 3.36082 11.3768L3.44399 11.5831L3.32078 11.8362C2.93267 12.6175 2.32278 13.53 1.67901 14.2863C1.37099 14.652 0.625569 15.4114 0.246699 15.7426L0.0249218 15.9426L0.0926871 15.9989C0.228218 16.1051 0.656372 16.302 0.822705 16.3333C1.17385 16.3989 1.62665 16.3364 1.93159 16.1801C2.31354 15.9801 3.15137 15.2239 3.7859 14.5051C4.0046 14.2582 4.10932 14.1644 4.20789 14.1238C4.27874 14.0957 4.34342 14.08 4.34958 14.0863C4.35574 14.0925 4.37114 14.1769 4.38347 14.2707L4.40195 14.4426L3.62265 15.5051C1.93159 17.8115 1.43875 18.4334 0.477717 19.4834C0.218977 19.7647 0.00644034 20.0116 0.000279851 20.0334C-0.00588063 20.0585 0.0896069 20.0866 0.292903 20.121L0.594767 20.171L0.88739 19.9491C2.53224 18.7115 3.54872 17.7333 4.15861 16.802C4.36498 16.4864 4.6268 15.9895 4.70073 15.777C4.73153 15.6832 4.74077 15.677 4.89171 15.677C5.018 15.677 5.0642 15.6926 5.12888 15.7583C5.19973 15.8301 5.20589 15.8551 5.19357 16.0614C5.18125 16.2864 5.17817 16.2895 4.93175 16.6427C4.79622 16.8396 4.48511 17.3177 4.24177 17.7052C3.15753 19.4397 2.88031 19.8616 2.48296 20.3616C2.15337 20.7804 1.68517 21.2741 1.35559 21.5523C1.09993 21.771 0.480798 22.2117 0.38223 22.2523C0.332946 22.2679 0.591686 22.5336 0.819624 22.6992C0.927433 22.7773 1.12149 22.8836 1.25086 22.9367C1.67593 23.1055 2.35975 23.0898 2.86491 22.8961C3.16985 22.7805 4.00768 22.046 4.52824 21.4366C5.01183 20.8741 5.53856 20.1116 6.0468 19.2428C6.3271 18.7678 6.45955 18.6365 6.64436 18.6521C6.78605 18.6646 6.83226 18.7553 6.83226 19.0272V19.2365L6.50883 19.7522C5.0488 22.096 3.74586 23.8055 1.99012 25.6868C1.4634 26.2494 1.4634 26.2931 1.99012 25.9869C4.82394 24.3336 6.52731 22.5117 7.53147 20.0585C7.64852 19.7772 7.70705 19.6772 7.8087 19.5803C7.95963 19.4397 8.01815 19.4459 8.06744 19.6116C8.09824 19.7178 8.08592 19.7553 7.88262 20.2147C6.78297 22.6992 5.38454 24.9368 3.60416 27.0619C3.37623 27.3338 3.19757 27.5619 3.20373 27.5682C3.20989 27.5775 3.30538 27.6244 3.41627 27.6744C3.99535 27.9369 4.6114 27.9369 5.15969 27.6744C5.37838 27.5682 6.02832 27.1369 6.29322 26.915C7.35898 26.0431 8.15676 25.0024 9.26565 23.0523C9.52439 22.5961 9.80469 22.121 9.89094 21.996C10.0573 21.7523 10.2298 21.5835 10.3191 21.5835C10.3684 21.5835 10.3622 21.6116 10.279 21.8554C10.0388 22.5398 9.6476 23.4617 9.3519 24.0211C9.26565 24.1836 8.98227 24.693 8.72353 25.1493C8.23069 26.0244 8.09516 26.3025 8.01815 26.6025C7.97195 26.7838 7.95655 27.0556 7.99043 27.09C8.01815 27.1213 8.3385 26.94 8.56027 26.7713C9.18248 26.2962 9.72769 25.5275 10.5594 23.943C11.0368 23.0305 11.2154 22.7336 11.3756 22.5648C11.4957 22.4367 11.6097 22.3898 11.6498 22.4523C11.659 22.4679 11.619 22.5586 11.5604 22.6523C11.3541 23.0023 11.1384 23.4336 10.6826 24.3993C10.4269 24.9399 10.122 25.5618 10.0018 25.7868C9.46279 26.7869 8.85906 27.565 8.22145 28.0869C8.08592 28.1963 7.98427 28.2963 7.99659 28.3057C8.00891 28.3182 8.27689 28.412 8.59724 28.5213C8.9145 28.6276 9.17324 28.7245 9.17016 28.7339C9.17016 28.7464 8.48327 29.3245 7.64544 30.0183L6.12072 31.2808L5.59092 31.4152C5.07036 31.5496 5.05804 31.5496 4.91635 31.5027C4.52516 31.3746 4.18017 31.034 3.78282 30.3777C3.38239 29.7183 3.12057 29.4839 2.7417 29.437C2.57844 29.4183 2.02092 29.5151 1.7437 29.612C1.5096 29.6933 1.2139 29.8464 1.0414 29.9745C0.748779 30.1902 0.369909 30.6496 0.0896069 31.1215L0.0218416 31.2371L0.197415 31.1777C0.604007 31.034 0.856587 31.1183 1.14921 31.4902C1.32786 31.7184 1.61433 31.9465 1.84843 32.0496C2.18725 32.1965 2.41519 32.2215 3.28998 32.1996C3.76742 32.1871 4.12472 32.1903 4.15245 32.209C4.18941 32.2309 4.18941 32.259 4.14321 32.409C4.04156 32.7309 3.70889 33.1059 3.35158 33.2997C3.04664 33.4653 2.7725 33.5216 2.3043 33.5184C2.00244 33.5153 1.85459 33.5278 1.76218 33.5622C1.05064 33.8278 0.616328 34.7685 0.684094 35.9092C0.702575 36.253 0.770341 36.6342 0.881229 37.0186C0.942834 37.2405 0.945914 37.2405 1.026 36.9811C1.19233 36.4311 1.50344 36.2092 2.09793 36.2092C2.84642 36.2092 3.13289 36.0029 3.29922 35.3467C3.39163 34.9841 3.63497 34.531 3.89679 34.231C4.14321 33.9497 4.7993 33.4184 4.8455 33.4622C4.85166 33.4716 4.8455 33.8903 4.8301 34.3966L4.7993 35.3123L4.60216 35.5217C4.38347 35.7592 4.29722 35.9436 4.22637 36.3342C4.15553 36.728 4.16785 36.8311 4.31878 37.178C4.49435 37.5811 4.75001 37.9687 4.98719 38.1905C5.19357 38.3874 5.28598 38.4499 5.72029 38.6999C6.00675 38.8656 6.00675 38.8656 5.99135 38.7781C5.97903 38.7312 5.95131 38.5937 5.92667 38.4749C5.82502 38.003 5.87738 37.7686 6.17617 37.3905C6.45647 37.0311 6.50575 36.9124 6.50575 36.5842C6.50575 36.2373 6.45031 36.0154 6.30554 35.7873C6.093 35.4498 6.08376 35.3685 6.06836 34.0904L6.05912 32.959H6.22545C6.58276 32.959 6.89694 33.1309 7.07868 33.4309C7.21421 33.656 7.44523 33.8747 7.65468 33.981C7.83026 34.0685 7.84258 34.0685 8.38778 34.0685C8.84982 34.0685 8.96379 34.0779 9.06543 34.1247C9.31801 34.2404 9.41658 34.3997 9.44738 34.7404C9.45971 34.8904 9.47819 34.9466 9.51515 34.9529C9.55211 34.9591 9.60448 34.8623 9.72153 34.5622C9.94022 33.9997 9.97719 33.8622 9.99567 33.5028C10.0172 33.0997 9.95562 32.8028 9.77081 32.434C9.48435 31.8559 9.29953 31.709 8.86522 31.709C8.60956 31.709 8.51407 31.734 8.01815 31.9278C7.42983 32.159 7.18957 32.1965 6.96163 32.0965C6.8569 32.0528 6.85382 32.0434 6.9031 32.0121C8.06744 31.2715 8.98535 30.5589 9.70612 29.8277L10.0357 29.4901L10.2636 29.5651C10.5902 29.6683 10.8581 29.8652 11.3048 30.3246C11.5943 30.6246 11.7021 30.7152 11.7175 30.6808C11.7268 30.6527 11.8839 30.2214 12.0687 29.7245C12.7463 27.8776 13.1252 26.9775 13.618 26.0369C14.3049 24.7274 14.8994 24.0836 15.4231 24.0836H15.5894L15.5709 24.4337C15.5493 24.8087 15.497 25.0993 15.3923 25.4274C15.1274 26.265 14.4589 27.3025 13.4825 28.3932C13.3069 28.587 13.0882 28.8307 12.9958 28.9339L12.8295 29.1182L12.9496 29.0995C13.9877 28.9307 14.5298 28.7245 15.4569 28.1463L15.8543 27.8994L15.7003 28.2495C15.614 28.4432 15.5031 28.6651 15.4508 28.7464C15.2968 28.9932 15.0473 29.1964 14.69 29.3714C14.5113 29.4589 14.3018 29.5776 14.2248 29.6308C14.1478 29.687 13.8922 29.8402 13.6581 29.9714C13.4209 30.1058 13.1591 30.2683 13.0728 30.3308C12.6909 30.6183 12.3829 31.0558 12.1642 31.6309C12.0101 32.0309 11.9824 32.1309 12.0409 32.109C12.5369 31.9152 14.2002 31.3996 14.6715 31.2902C15.1643 31.1777 15.5555 31.1433 15.5955 31.209C15.6233 31.2527 15.3029 31.8996 15.0935 32.2215C14.9025 32.5153 14.5359 32.9403 14.2556 33.1903L14.0862 33.3403L13.6242 33.3216C13.3716 33.3122 12.9866 33.2934 12.771 33.2841C12.466 33.2684 12.3305 33.2747 12.1549 33.3153C11.8808 33.3778 11.5327 33.5497 11.2832 33.7466C11.0799 33.9028 10.6733 34.3154 10.4546 34.5841L10.316 34.756L10.3992 34.7935C10.4454 34.8123 10.8304 34.9154 11.2524 35.0185C12.4229 35.306 12.8326 35.4248 13.0697 35.5342L13.2854 35.6342L13.119 35.7311C12.9034 35.8592 12.4599 36.0061 12.0964 36.0748C11.8685 36.1154 11.6251 36.1279 10.9598 36.1279C10.4947 36.1311 9.96795 36.1248 9.78929 36.1154C9.48435 36.1029 9.45046 36.1061 9.16092 36.2061C8.84058 36.3186 8.48019 36.5217 8.23685 36.7248C7.75633 37.1311 7.42058 37.828 7.4175 38.4156C7.4175 38.6062 7.46987 38.9562 7.50683 38.9968C7.51607 39.0093 7.65468 38.8999 7.81178 38.7562C8.38162 38.2343 8.64036 38.1124 9.23485 38.0905C9.53979 38.0812 9.6938 38.0905 9.97411 38.1437C10.6394 38.2655 11.0676 38.3093 11.7976 38.3249C12.58 38.3437 12.9404 38.3155 13.3778 38.203C14.0185 38.0405 14.539 37.7249 14.847 37.3061C14.9179 37.2092 14.9857 37.1186 14.998 37.103C15.0257 37.0686 15.0657 37.1624 15.2844 37.803C15.5155 38.4749 15.7157 38.8812 15.9652 39.2031C16.187 39.4875 16.5227 39.7594 16.8338 39.9094L17.0217 40L17.3112 39.8562C17.9889 39.5156 18.3185 39.0718 18.6912 37.9905C18.7774 37.7405 18.876 37.4624 18.913 37.3718L18.9777 37.2061L19.0547 37.3249C19.375 37.8186 19.9633 38.1968 20.6718 38.3655C21.448 38.5499 22.8495 38.5187 24.0447 38.2905C24.4451 38.2155 24.6977 38.1999 24.9595 38.2405C25.4246 38.3124 25.6957 38.4593 26.1885 38.9124L26.4811 39.1812L26.515 39.0625C26.5335 38.9968 26.5581 38.8156 26.5674 38.6624C26.629 37.6343 25.8558 36.6592 24.71 36.3186L24.4358 36.2373L23.9184 36.2748C22.9943 36.3405 22.0579 36.2842 21.485 36.1279C21.2848 36.0717 20.8966 35.9029 20.7827 35.8217C20.7149 35.7748 20.7149 35.7717 20.8936 35.6904C21.1769 35.5654 21.4881 35.4717 22.2704 35.2842C22.6647 35.1904 23.1452 35.0685 23.3362 35.0154C23.6442 34.931 23.6781 34.9154 23.6442 34.8685C23.4779 34.6498 23.0929 34.2185 22.9481 34.0935C22.2704 33.4966 21.83 33.3559 20.9305 33.4434C20.6718 33.4684 20.333 33.4903 20.1759 33.4903H19.8894L19.5105 33.1059C19.2888 32.8809 19.0577 32.609 18.9469 32.4434C18.7744 32.1809 18.3832 31.4371 18.3832 31.3652C18.3832 31.3246 18.7189 31.3246 18.9561 31.3652C19.4705 31.4559 20.0865 31.6309 21.1646 31.9903C21.6174 32.1403 21.9871 32.2528 21.9871 32.2434C21.9871 32.184 21.8269 31.7496 21.716 31.5121C21.562 31.1808 21.3956 30.9277 21.1831 30.7121C20.9767 30.5058 20.7888 30.3746 20.2775 30.0839C20.0588 29.962 19.8124 29.812 19.7354 29.7558C19.6553 29.6995 19.4951 29.612 19.3781 29.562C19.0885 29.437 18.8421 29.2651 18.6727 29.0714C18.5433 28.9214 18.4509 28.7557 18.2322 28.262C18.1244 28.0182 18.1029 28.0151 18.5464 28.2995C19.1471 28.6807 19.6769 28.9339 20.2005 29.0807C20.4439 29.1495 21.1307 29.2745 21.1523 29.2526C21.1585 29.2464 21.0476 29.1182 20.9028 28.9682C20.0249 28.0557 19.2764 27.0494 18.8822 26.2556C18.5895 25.6618 18.4571 25.1806 18.4232 24.5868C18.4047 24.2524 18.4047 24.2493 18.4787 24.2305C18.5649 24.2086 18.7836 24.2524 18.9191 24.3243C19.2302 24.4837 19.5598 24.8305 19.9017 25.3618C20.527 26.3306 21.0938 27.5963 21.9378 29.912C22.101 30.3589 22.2489 30.7589 22.2674 30.8027C22.3012 30.8808 22.3074 30.8777 22.6 30.5621C23.1021 30.0245 23.404 29.8027 23.7828 29.6933L23.9646 29.6401L24.3527 30.0308C25.0119 30.6902 25.5109 31.0965 26.475 31.7496C26.8354 31.9934 27.1187 32.2028 27.1064 32.2153C27.091 32.2309 27.0048 32.259 26.9093 32.2778C26.6967 32.3215 26.4688 32.2684 25.822 32.0215C25.4369 31.8715 25.3661 31.8559 25.1443 31.8559C24.8209 31.8527 24.6515 31.9309 24.4636 32.1746C24.3157 32.3653 24.1494 32.6903 24.0601 32.959C23.9738 33.2247 23.983 33.8653 24.0785 34.1779C24.134 34.3591 24.405 35.0654 24.4358 35.1091C24.4389 35.1123 24.4666 35.1091 24.4944 35.0966C24.5313 35.0841 24.5437 35.0373 24.5437 34.931C24.5437 34.7154 24.596 34.5622 24.7192 34.4247C24.8825 34.2404 25.0365 34.206 25.6525 34.2154C26.1577 34.2247 26.1608 34.2247 26.3271 34.1341C26.5304 34.0278 26.8015 33.7716 26.9062 33.5935C27.0725 33.3028 27.3405 33.1434 27.6947 33.1216L27.9319 33.1059V34.1435C27.9319 35.3967 27.8919 35.6873 27.6732 35.9498C27.5654 36.0811 27.4884 36.3936 27.4884 36.7248C27.4884 37.0655 27.5346 37.1905 27.7933 37.5061C28.0551 37.828 28.1013 37.9468 28.0983 38.2874C28.0983 38.4499 28.0736 38.6531 28.0428 38.7687C28.0151 38.8781 27.9966 38.9718 28.0028 38.9812C28.0305 39.0062 28.6989 38.6062 28.8868 38.4531C29.1702 38.2187 29.3642 37.953 29.5983 37.478C29.8355 36.9905 29.8448 36.9311 29.7677 36.4905C29.6969 36.0998 29.6107 35.9154 29.392 35.6779L29.1948 35.4685L29.164 34.5341C29.1486 34.0216 29.1394 33.5997 29.1455 33.5935C29.1733 33.5653 29.7308 34.0028 29.9402 34.2154C30.3222 34.606 30.5132 34.9248 30.6918 35.481C30.8489 35.9779 30.9814 36.1686 31.2432 36.2717C31.2955 36.2936 31.5574 36.328 31.8284 36.3498C32.3613 36.3967 32.4845 36.4311 32.6632 36.5905C32.7802 36.6967 32.9681 37.0499 33.002 37.2311C33.0112 37.2874 33.0328 37.3343 33.0451 37.3343C33.079 37.3343 33.2238 36.7561 33.2761 36.4092C33.3963 35.6092 33.2607 34.8091 32.9219 34.2935C32.7463 34.0278 32.5677 33.8685 32.3151 33.7466C32.1488 33.6685 32.1118 33.6622 31.7607 33.6716C31.2863 33.681 31.0214 33.6278 30.6764 33.4559C30.3438 33.2903 30.0819 33.0278 29.9248 32.709C29.8602 32.584 29.8109 32.4496 29.8109 32.4059V32.334L30.7442 32.3403C31.5666 32.3496 31.696 32.3434 31.8716 32.2934C32.2504 32.184 32.4168 32.0715 32.7987 31.6809C33.0975 31.3746 33.1745 31.309 33.2977 31.2746C33.4486 31.2308 33.6458 31.2558 33.8614 31.3465C33.9199 31.3715 33.9692 31.3871 33.9692 31.3777C33.9692 31.3715 33.886 31.234 33.7813 31.0777C33.2145 30.2089 32.7217 29.8464 31.8469 29.6558C31.0923 29.4933 30.775 29.6308 30.3499 30.3121C29.9834 30.8933 29.9002 31.0183 29.7677 31.1683C29.5983 31.359 29.3581 31.5309 29.1209 31.6277L28.9453 31.6996L28.4278 31.5684C28.1445 31.4965 27.8919 31.4246 27.8672 31.4121C27.8426 31.3965 27.1465 30.8214 26.3179 30.1339L24.8116 28.8839L24.901 28.8432C24.9502 28.8245 25.2244 28.7245 25.5078 28.6276C25.9236 28.487 26.0191 28.4432 25.9852 28.4151C25.9636 28.3932 25.8096 28.2588 25.6464 28.1182C25.3106 27.8276 24.9995 27.4838 24.6977 27.0682C24.2634 26.4744 24.0046 25.9994 23.2808 24.4837C22.9881 23.8711 22.6555 23.2023 22.5415 22.9992C22.4275 22.7961 22.3413 22.6211 22.3474 22.6054C22.3813 22.5492 22.5076 22.5929 22.6093 22.6992C22.7633 22.8648 22.9481 23.168 23.2808 23.8024C24.2356 25.6306 24.7254 26.3462 25.3599 26.865C25.5478 27.015 25.9205 27.24 25.9852 27.24C26.0376 27.24 26.0314 26.9869 25.976 26.7525C25.9113 26.4681 25.7727 26.1869 25.2459 25.2556C24.519 23.9743 24.0909 23.0711 23.7459 22.0898C23.6288 21.7648 23.6257 21.7398 23.6812 21.7398C23.7767 21.7398 23.9646 21.9335 24.1494 22.2179C24.2418 22.3586 24.5313 22.8461 24.7901 23.3024C25.5355 24.6149 25.9852 25.2774 26.6351 26.0275C27.4422 26.9525 28.5233 27.7682 29.1948 27.9557C29.472 28.0338 29.8632 28.0401 30.1435 27.9744C30.3561 27.9244 30.7965 27.7463 30.7965 27.7151C30.7965 27.7026 30.6302 27.4963 30.4238 27.2557C28.6835 25.1993 27.2882 22.9773 26.1546 20.4585C25.8928 19.8834 25.8928 19.8803 25.9359 19.7584C25.9575 19.6897 25.9914 19.6303 26.0129 19.6241C26.0345 19.6147 26.1115 19.6678 26.1854 19.7366C26.2902 19.8334 26.3487 19.9303 26.438 20.1522C26.6844 20.7679 27.1157 21.5835 27.4791 22.1304C28.4679 23.618 29.9741 24.9556 31.964 26.1119C32.2689 26.2869 32.3551 26.3244 32.389 26.2962C32.426 26.2681 32.3551 26.1806 32.0071 25.8212C30.852 24.6337 29.7277 23.2398 28.6065 21.6148C28.2307 21.071 28.0336 20.771 27.4945 19.9147L27.1619 19.3865V19.1803C27.1619 18.9646 27.2019 18.8459 27.2943 18.7896C27.3344 18.7615 27.3806 18.774 27.5099 18.8396C27.6609 18.9209 27.6886 18.9584 27.9535 19.4022C28.9515 21.0804 29.7369 22.0335 30.7503 22.8023C31.16 23.1148 31.582 23.2336 32.1642 23.1992C32.6601 23.1711 33.039 23.0055 33.4209 22.6461C33.5441 22.5304 33.6396 22.4273 33.6304 22.4211C33.6211 22.4117 33.4548 22.2992 33.2577 22.1679C32.2412 21.4866 31.5204 20.6585 30.4269 18.9271C29.5306 17.5083 29.1178 16.8614 28.9638 16.6364C28.8006 16.3989 28.7944 16.3864 28.7944 16.1801C28.7944 15.8989 28.8498 15.8333 29.087 15.8333H29.2564L29.3088 15.9645C29.4074 16.2239 29.6569 16.6802 29.8725 17.0021C30.4854 17.9146 31.428 18.824 33.0236 20.0366L33.387 20.3116L33.6489 20.2741C33.9322 20.2335 34 20.2147 34 20.1772C34 20.1616 33.8429 19.9834 33.6519 19.7803C32.7279 18.7959 32.0286 17.9177 30.5039 15.8333C30.0326 15.1895 29.6353 14.6457 29.6199 14.6238C29.5737 14.5676 29.623 14.2394 29.6784 14.2394C29.7924 14.2394 29.9803 14.3926 30.2975 14.7488C31.1261 15.6801 31.8069 16.2458 32.2966 16.4145C32.7864 16.5864 33.3223 16.5177 33.7628 16.2301L33.9723 16.0958L33.6396 15.7958C33.0112 15.2332 32.235 14.3801 31.7453 13.7238C31.4095 13.2706 31.0306 12.655 30.6918 12.0112L30.547 11.7362L30.6302 11.5206L30.7134 11.3018L30.8489 11.5112C31.4311 12.4112 32.2997 13.2019 33.2823 13.7269C33.4887 13.8394 33.5749 13.8707 33.5996 13.8457C33.6242 13.8207 33.2577 13.2738 32.1919 11.7518C30.7565 9.6986 30.7503 9.69234 30.7503 9.53609V9.37983L30.8736 9.37045C30.9937 9.36108 31.0029 9.36733 31.16 9.57672C31.5142 10.0549 31.8962 10.3486 32.3243 10.4768C32.5769 10.5549 33.0451 10.5486 33.3839 10.4643C33.8275 10.3549 33.8152 10.3705 33.5903 10.1986C33.3162 9.99548 32.9096 9.55484 32.694 9.2267C32.5954 9.07357 32.426 8.7673 32.3213 8.53917C31.9763 7.81726 31.7822 7.17348 31.4311 5.61403C30.9475 3.47018 30.7503 2.86078 30.3376 2.23262C30.0296 1.76698 29.4936 1.40134 28.8745 1.22945C28.5048 1.12945 27.8765 1.1357 27.4668 1.24508C27.0571 1.35758 26.7399 1.49821 26.4257 1.7076C26.0899 1.92949 26.0068 2.03574 25.7758 2.50451C25.477 3.11391 25.3538 3.67644 25.4061 4.20771C25.4554 4.67649 25.5848 4.98275 25.8497 5.24839C25.9944 5.39215 26.2994 5.58278 26.3856 5.58278C26.475 5.58278 26.7614 6.04218 26.8354 6.29844C26.9832 6.81721 26.8138 7.29223 26.1669 8.17665C24.7624 10.0924 23.6442 11.1643 22.3936 11.7987C22.0487 11.9737 21.8053 12.0206 21.2293 12.0206C20.6102 12.0206 20.2128 11.9018 19.9295 11.6331C19.7662 11.4768 19.6029 11.1987 19.5691 11.0174L19.5475 10.9049L19.8678 10.8862C20.2529 10.8674 20.4747 10.808 20.8012 10.6486C21.2232 10.4361 21.5219 10.0799 21.7098 9.55484L21.8053 9.29233L21.6575 9.3142C21.5774 9.32358 21.2478 9.34233 20.9244 9.3517C20.0958 9.37983 19.6892 9.31733 19.3781 9.10482C19.2118 8.99231 19.0916 8.78918 19.0916 8.61729V8.51104L19.3935 8.52979C19.9757 8.57042 20.4377 8.45791 20.6564 8.22978C20.7919 8.08915 20.8751 7.87664 20.8966 7.61412L20.9182 7.38286L20.7303 7.53287C20.4377 7.76726 20.2683 7.80163 20.0619 7.66413C19.9818 7.611 19.7354 7.28598 19.5845 7.02972L19.4767 6.85159L19.4643 6.37969C19.4489 5.67966 19.5629 4.98588 19.7662 4.54211C20.0188 3.98896 20.1112 3.3983 19.9972 3.03266C19.9664 2.92953 19.8832 2.76077 19.8124 2.65764C19.6245 2.37951 19.5845 2.28888 19.5845 2.14199C19.5845 1.99511 19.6707 1.82948 19.7754 1.77948C19.8155 1.76073 19.9233 1.73573 20.0188 1.72948C20.3976 1.6951 20.6287 1.47009 20.9244 0.848186C21.0291 0.626301 21.1123 0.435665 21.1092 0.432541C21.103 0.426292 20.9767 0.457542 20.8258 0.501293C19.6676 0.845058 18.4787 0.854435 17.5761 0.52317C17.4345 0.473167 17.1542 0.366913 16.9478 0.288784C16.7445 0.210655 16.4395 0.120026 16.2701 0.0825233C15.8759 -0.00185394 15.2413 -0.0268555 14.9487 0.0325241Z" fill="#E41B17"/>
</svg>
