<svg width="62" height="54" viewBox="0 0 62 54" fill="none" xmlns="http://www.w3.org/2000/svg">
<path d="M51.6042 11.375C53.4183 11.375 54.3253 11.375 55.0735 11.5509C57.419 12.1022 59.2502 13.8781 59.8186 16.1527C60 16.8783 60 17.758 60 19.5173V39.5C60 45.3925 60 48.3387 58.1124 50.1694C56.2248 52 53.1869 52 47.1111 52H43.8889H18.1111H14.8889C8.813 52 5.77506 52 3.88755 50.1694C2 48.3387 2 45.3925 2 39.5V19.5173C2 17.758 2 16.8783 2.18135 16.1527C2.74984 13.8781 4.58103 12.1022 6.92636 11.5509C7.67456 11.375 8.58161 11.375 10.3957 11.375C11.412 11.375 11.9202 11.375 12.3952 11.3059C13.8654 11.0923 15.2141 10.3922 16.2129 9.32444C16.5356 8.97944 16.8175 8.56937 17.3813 7.74922L18.1111 6.6875C19.3883 4.8295 20.0269 3.9005 20.8999 3.26147C21.433 2.87122 22.0255 2.56372 22.656 2.35C23.6885 2 24.8398 2 27.1424 2H34.8576C37.1602 2 38.3115 2 39.3439 2.35C39.9745 2.56372 40.5671 2.87122 41.1001 3.26147C41.973 3.9005 42.6116 4.8295 43.8889 6.6875L44.6187 7.74922C45.1826 8.56937 45.4642 8.97944 45.7871 9.32444C46.786 10.3922 48.1348 11.0923 49.6048 11.3059C50.0797 11.375 50.5879 11.375 51.6042 11.375Z" stroke="white" stroke-width="3" stroke-linejoin="round"/>
<path d="M40.6668 30.125C40.6668 35.3028 36.3391 39.5 31.0002 39.5C25.6613 39.5 21.3335 35.3028 21.3335 30.125C21.3335 24.9472 25.6613 20.75 31.0002 20.75C36.3391 20.75 40.6668 24.9472 40.6668 30.125Z" stroke="white" stroke-width="3"/>
</svg>
