<svg width="16" height="16" viewBox="0 0 16 16" fill="none" xmlns="http://www.w3.org/2000/svg">
<g clip-path="url(#clip0_32_734)">
<path d="M16 6.52392V1.58341L14.2943 3.281C13.7267 2.51568 13.024 1.85456 12.2141 1.33269C10.9358 0.5091 9.45315 0.0737305 7.92613 0.0737305C3.55565 0.0737305 0 3.62938 0 7.9999C0 12.3704 3.55565 15.9261 7.92617 15.9261C9.44178 15.9261 10.9151 15.4968 12.187 14.6846C13.4244 13.8943 14.4172 12.78 15.0581 11.462L13.8823 10.8903C12.7641 13.19 10.4818 14.6187 7.92622 14.6187C4.27656 14.6187 1.30742 11.6495 1.30742 7.9999C1.30742 4.35029 4.27656 1.38115 7.92617 1.38115C10.0985 1.38115 12.129 2.4663 13.3551 4.21572L11.0357 6.52392H16Z" fill="white"/>
</g>
<defs>
<clipPath id="clip0_32_734">
<rect width="16" height="16" fill="white"/>
</clipPath>
</defs>
</svg>
