<svg width="12" height="12" viewBox="0 0 12 12" fill="none" xmlns="http://www.w3.org/2000/svg">
<path d="M5.71337 0.927543C5.80049 0.64564 6.19951 0.64564 6.28663 0.927544L7.35107 4.37216C7.38992 4.49787 7.50613 4.58359 7.6377 4.58359H11.1131C11.4001 4.58359 11.5233 4.94779 11.2952 5.12199L8.45809 7.28937C8.35818 7.3657 8.31646 7.49622 8.35358 7.61634L9.43109 11.1032C9.51733 11.3823 9.19445 11.6075 8.96235 11.4302L6.18212 9.30631C6.0746 9.22417 5.9254 9.22417 5.81788 9.30631L3.03765 11.4302C2.80555 11.6075 2.48267 11.3823 2.56891 11.1032L3.64642 7.61634C3.68354 7.49622 3.64182 7.3657 3.54191 7.28937L0.704769 5.12199C0.476735 4.94778 0.599929 4.58359 0.886889 4.58359H4.3623C4.49387 4.58359 4.61008 4.49787 4.64893 4.37216L5.71337 0.927543Z" fill="white"/>
</svg>
